<?xml version="1.0" encoding="UTF-8" standalone="no"?>
<!-- Created with Inkscape (http://www.inkscape.org/) -->

<svg
   xmlns:dc="http://purl.org/dc/elements/1.1/"
   xmlns:cc="http://creativecommons.org/ns#"
   xmlns:rdf="http://www.w3.org/1999/02/22-rdf-syntax-ns#"
   xmlns:svg="http://www.w3.org/2000/svg"
   xmlns="http://www.w3.org/2000/svg"
   xmlns:sodipodi="http://sodipodi.sourceforge.net/DTD/sodipodi-0.dtd"
   xmlns:inkscape="http://www.inkscape.org/namespaces/inkscape"
   width="20"
   height="20"
   id="svg2"
   version="1.1"
   inkscape:version="0.48.4 r9939"
   sodipodi:docname="beast.svg">
  <defs
     id="defs4" />
  <sodipodi:namedview
     id="base"
     pagecolor="#ffffff"
     bordercolor="#666666"
     borderopacity="1.0"
     inkscape:pageopacity="0.0"
     inkscape:pageshadow="2"
     inkscape:zoom="6.751765"
     inkscape:cx="0.31949719"
     inkscape:cy="-1.3288252"
     inkscape:document-units="px"
     inkscape:current-layer="layer1"
     showgrid="false"
     inkscape:window-width="1920"
     inkscape:window-height="1018"
     inkscape:window-x="-8"
     inkscape:window-y="-8"
     inkscape:window-maximized="1" />
  <metadata
     id="metadata7">
    <rdf:RDF>
      <cc:Work
         rdf:about="">
        <dc:format>image/svg+xml</dc:format>
        <dc:type
           rdf:resource="http://purl.org/dc/dcmitype/StillImage" />
        <dc:title />
      </cc:Work>
    </rdf:RDF>
  </metadata>
  <g
     inkscape:label="Layer 1"
     inkscape:groupmode="layer"
     id="layer1"
     transform="translate(0,-1032.3622)">
    <path
       d="m 1.655049,1032.3327 c 0,0 -1.11536435,6.5516 -0.73630282,8.4287 0.48346682,2.3945 1.85957552,3.6142 3.04749072,3.6906 1.2272139,2.6053 3.4537697,5.3729 6.020472,7.9397 2.7059851,-2.7061 4.8725341,-5.4127 6.0603671,-7.9409 1.184683,-0.085 2.552667,-1.3044 3.034178,-3.6894 0.379061,-1.8771 -0.736302,-8.4287 -0.736302,-8.4287 0,0 -1.098307,1.9136 -2.16761,3.9685 -2.523239,-5.1676 -9.8336989,-5.1993 -12.3560446,0 -1.0691316,-2.0546 -2.1662484,-3.9673 -2.1662484,-3.9673 z m 3.9604992,4.9506 c 1.1658861,0 2.0939095,0.6079 2.8135396,1.7503 -1.3873755,0.7278 -2.5779721,-0.052 -3.6600348,-1.652 0.2947279,-0.066 0.5775429,-0.098 0.8465391,-0.098 z m 8.7237378,0 c 0.269038,0 0.550493,0.032 0.845262,0.098 -1.082148,1.5999 -2.271385,2.3799 -3.658761,1.6521 0.719589,-1.1424 1.647569,-1.7505 2.813499,-1.7503 z m -6.7248804,3.1684 1.3223931,3.5977 1.1322893,-3.5977 1.152277,3.6521 1.286498,-3.506 1.083127,3.6031 1.31712,-3.312 c 0.871288,1.8404 -0.511625,4.9883 -1.768989,6.5547 l -0.959453,-2.6674 -0.938356,5.0464 -1.0127,-4.3659 -1.1389222,4.0256 -1.0446775,-4.2196 -0.9595801,2.472 c -1.7424938,-2.3411 -2.2581124,-4.7642 -1.3875054,-6.8458 l 0.9210479,2.8269 0.9953899,-3.2641 z"
       id="path6"
       inkscape:connector-curvature="0"
       style="fill:#000000" />
  </g>
</svg>
