<?xml version="1.0" encoding="UTF-8" standalone="no"?>
<!-- Created with Inkscape (http://www.inkscape.org/) -->

<svg
   xmlns:dc="http://purl.org/dc/elements/1.1/"
   xmlns:cc="http://creativecommons.org/ns#"
   xmlns:rdf="http://www.w3.org/1999/02/22-rdf-syntax-ns#"
   xmlns:svg="http://www.w3.org/2000/svg"
   xmlns="http://www.w3.org/2000/svg"
   xmlns:sodipodi="http://sodipodi.sourceforge.net/DTD/sodipodi-0.dtd"
   xmlns:inkscape="http://www.inkscape.org/namespaces/inkscape"
   width="20"
   height="20"
   id="svg2"
   version="1.1"
   inkscape:version="0.48.4 r9939"
   sodipodi:docname="master.svg">
  <defs
     id="defs4" />
  <sodipodi:namedview
     id="base"
     pagecolor="#ffffff"
     bordercolor="#666666"
     borderopacity="1.0"
     inkscape:pageopacity="0.0"
     inkscape:pageshadow="2"
     inkscape:zoom="6.751765"
     inkscape:cx="16.203928"
     inkscape:cy="-15.351305"
     inkscape:document-units="px"
     inkscape:current-layer="layer1"
     showgrid="false"
     inkscape:window-width="1920"
     inkscape:window-height="1018"
     inkscape:window-x="-8"
     inkscape:window-y="-8"
     inkscape:window-maximized="1" />
  <metadata
     id="metadata7">
    <rdf:RDF>
      <cc:Work
         rdf:about="">
        <dc:format>image/svg+xml</dc:format>
        <dc:type
           rdf:resource="http://purl.org/dc/dcmitype/StillImage" />
        <dc:title />
      </cc:Work>
    </rdf:RDF>
  </metadata>
  <g
     inkscape:label="Layer 1"
     inkscape:groupmode="layer"
     id="layer1"
     transform="translate(0,-1032.3622)">
    <path
       d="m 10.021148,1032.3567 -0.3165779,0.4344 c 0,0 -0.6199145,0.8501 -1.2423405,1.8757 -0.3111714,0.5129 -0.6245238,1.0696 -0.8643583,1.5972 -0.239832,0.5277 -0.4176758,1.0139 -0.4176758,1.4703 0,1.5643 1.2766264,2.8411 2.8409525,2.8411 1.564539,0 2.841123,-1.2768 2.841123,-2.8411 0,-0.4564 -0.177801,-0.9426 -0.417636,-1.4702 -0.239875,-0.5277 -0.551675,-1.0844 -0.862846,-1.5973 -0.62243,-1.0256 -1.243853,-1.8756 -1.243853,-1.8756 l -0.316744,-0.4345 z m 0,1.3738 c 0.203202,0.2872 0.446388,0.6116 0.890471,1.3434 0.301155,0.4961 0.600632,1.0317 0.820055,1.5144 0.21942,0.4828 0.34726,0.926 0.34726,1.146 0,0.588 -0.243773,1.116 -0.635923,1.4901 0.07176,-0.1773 0.111572,-0.3711 0.111572,-0.5741 0,-0.8466 -1.532806,-2.9493 -1.532806,-2.9493 0,0 -1.5328925,2.1027 -1.5328925,2.9493 0,0.2036 0.040025,0.3977 0.1121269,0.5755 -0.393032,-0.3741 -0.6375163,-0.9028 -0.6375163,-1.4916 0,-0.22 0.1293893,-0.6631 0.3488094,-1.146 0.2193797,-0.4826 0.5188994,-1.0182 0.8200123,-1.5144 0.4440422,-0.7318 0.6857199,-1.0561 0.8888792,-1.3434 z m -8.293589,1.2515 -0.1376899,0.5187 c 0,0 -0.2720225,1.0172 -0.4818466,2.1984 -0.1049116,0.5906 -0.19498537,1.2235 -0.22801368,1.8022 -0.0329443,0.5787 -0.0225364,1.0953 0.14229908,1.5206 0.5651716,1.4589 2.2161363,2.1886 3.6748823,1.6235 1.4587429,-0.5654 2.1883478,-2.2178 1.6232566,-3.6765 -0.1648476,-0.4255 -0.5067444,-0.8124 -0.9210227,-1.2178 -0.4142815,-0.4053 -0.9075724,-0.8124 -1.3830074,-1.178 -0.9510371,-0.7314 -1.8360578,-1.3004 -1.8360578,-1.3004 l -0.4528834,-0.2907 z m 16.544637,0 -0.452966,0.2907 c 0,0 -0.88498,0.569 -1.83585,1.3004 -0.475476,0.3658 -0.968807,0.7727 -1.383172,1.178 -0.414242,0.4054 -0.754543,0.7923 -0.919433,1.2179 -0.565132,1.4586 0.162961,3.1111 1.621663,3.6764 1.45879,0.5652 3.111304,-0.1646 3.676478,-1.6233 0.164891,-0.4255 0.173732,-0.9421 0.140747,-1.5208 -0.03299,-0.5786 -0.123012,-1.2116 -0.22793,-1.8022 -0.209824,-1.181 -0.48193,-2.1984 -0.48193,-2.1984 l -0.13769,-0.5187 z m -0.495676,1.2805 c 0.08559,0.3411 0.19448,0.7312 0.344239,1.5744 0.10143,0.5715 0.186939,1.1795 0.217117,1.7088 0.03017,0.5294 -0.01072,0.9882 -0.09012,1.1933 -0.212377,0.5481 -0.630306,0.9521 -1.130846,1.1594 0.130604,-0.1393 0.237486,-0.3052 0.310668,-0.4941 0.305891,-0.7894 -0.363816,-3.3038 -0.363816,-3.3038 0,0 -2.189061,1.4067 -2.494867,2.1961 -0.07335,0.1892 -0.106173,0.3841 -0.103398,0.5752 -0.230697,-0.4905 -0.267413,-1.0713 -0.05491,-1.6199 0.07951,-0.2051 0.358495,-0.5699 0.737485,-0.9407 0.378987,-0.371 0.852536,-0.7629 1.31259,-1.1169 0.679261,-0.5225 1.023127,-0.7377 1.315815,-0.9318 z m -15.5516885,0 c 0.2932726,0.1944 0.6358404,0.4084 1.3142243,0.9302 0.4600925,0.3539 0.933682,0.746 1.3126722,1.1168 0.3789903,0.3709 0.6578881,0.7357 0.7373581,0.9409 0.2124208,0.5482 0.1759147,1.1287 -0.054488,1.6193 0.00279,-0.191 -0.030265,-0.3856 -0.1035304,-0.5747 -0.3057648,-0.7893 -2.494867,-2.1961 -2.494867,-2.1961 0,0 -0.6695826,2.5145 -0.3637313,3.3039 0.073265,0.1889 0.1801469,0.3548 0.3107946,0.4941 -0.5006668,-0.2072 -0.918763,-0.6112 -1.1311838,-1.1595 -0.07947,-0.2051 -0.1203778,-0.6639 -0.0902,-1.1933 0.030172,-0.5293 0.1172344,-1.1374 0.2187922,-1.7089 0.1495514,-0.8423 0.2584853,-1.2312 0.3441999,-1.5728 z m 7.7245599,5.1299 c -1.8298963,0 -3.3242245,1.1934 -3.6610918,2.795 -0.9594177,0.3602 -1.8158957,0.827 -2.4188778,1.4367 -0.6503421,0.6575 -1.0525517,1.4603 -1.0525517,2.327 0,1.2934 0.8789431,2.4134 2.1847433,3.1853 1.3058002,0.772 3.066874,1.2314 5.0013016,1.2314 1.934432,0 3.688046,-0.4589 4.987557,-1.2314 1.299513,-0.7724 2.172504,-1.8936 2.172504,-3.1853 0,-0.8746 -0.408079,-1.6845 -1.067976,-2.3468 -0.612495,-0.615 -1.483561,-1.0845 -2.460037,-1.4428 -0.351242,-1.5924 -1.865734,-2.7691 -3.6856116,-2.7691 z m 0,0.7832 c 1.5547706,0 2.7931716,1.0243 2.9833786,2.3026 l 0.03512,0.237 0.228016,0.077 c 0.98247,0.3307 1.793221,0.8118 2.343847,1.3646 0.55059,0.5527 0.839964,1.161 0.839964,1.7946 0,0.6258 -0.286273,1.2312 -0.818166,1.7678 0.152986,-0.3187 0.235472,-0.6563 0.235472,-1.0061 0,-1.0583 -1.324784,-2.712 -3.751919,-3.3423 0.0072,-0.066 0.01097,-0.1326 0.01097,-0.2002 0,-1.072 -0.925301,-1.9411 -2.0667106,-1.9411 -1.1414529,0 -2.0667943,0.8691 -2.0667943,1.9411 0,0.064 0.00353,0.1285 0.010091,0.1915 -2.440382,0.6256 -3.7506245,2.2973 -3.7506245,3.3512 h -8.12e-5 c 0,0.3457 0.081188,0.6796 0.2319119,0.9951 -0.5290425,-0.5341 -0.8135574,-1.1357 -0.8135574,-1.7569 0,-0.6268 0.2840542,-1.2282 0.8261331,-1.7763 0.5421191,-0.5482 1.3405875,-1.0268 2.3070505,-1.3601 l 0.2264185,-0.078 0.033743,-0.2386 c 0.1812381,-1.293 1.3930668,-2.3224 2.9558006,-2.3224 z"
       id="path6-9"
       inkscape:connector-curvature="0"
       style="fill:#000000" />
  </g>
</svg>
