<?xml version="1.0" encoding="UTF-8" standalone="no"?>
<!-- Created with Inkscape (http://www.inkscape.org/) -->

<svg
   xmlns:dc="http://purl.org/dc/elements/1.1/"
   xmlns:cc="http://creativecommons.org/ns#"
   xmlns:rdf="http://www.w3.org/1999/02/22-rdf-syntax-ns#"
   xmlns:svg="http://www.w3.org/2000/svg"
   xmlns="http://www.w3.org/2000/svg"
   xmlns:sodipodi="http://sodipodi.sourceforge.net/DTD/sodipodi-0.dtd"
   xmlns:inkscape="http://www.inkscape.org/namespaces/inkscape"
   width="20"
   height="20"
   id="svg2"
   version="1.1"
   inkscape:version="0.48.4 r9939"
   sodipodi:docname="summoner.svg">
  <defs
     id="defs4" />
  <sodipodi:namedview
     id="base"
     pagecolor="#ffffff"
     bordercolor="#666666"
     borderopacity="1.0"
     inkscape:pageopacity="0.0"
     inkscape:pageshadow="2"
     inkscape:zoom="9.5484376"
     inkscape:cx="-31.640053"
     inkscape:cy="-1.0273489"
     inkscape:document-units="px"
     inkscape:current-layer="layer1"
     showgrid="false"
     inkscape:window-width="1920"
     inkscape:window-height="1018"
     inkscape:window-x="-8"
     inkscape:window-y="-8"
     inkscape:window-maximized="1" />
  <metadata
     id="metadata7">
    <rdf:RDF>
      <cc:Work
         rdf:about="">
        <dc:format>image/svg+xml</dc:format>
        <dc:type
           rdf:resource="http://purl.org/dc/dcmitype/StillImage" />
        <dc:title />
      </cc:Work>
    </rdf:RDF>
  </metadata>
  <g
     inkscape:label="Layer 1"
     inkscape:groupmode="layer"
     id="layer1"
     transform="translate(0,-1032.3622)">
    <path
       d="m 3.3718764,1032.3445 c -0.04726,0 -0.094432,0 -0.141523,0 -0.1076685,0 -0.2148623,0.014 -0.3214276,0.028 -0.8524777,0.1161 -1.6552437,0.5777 -2.21178312,1.4233 -1.04041367,1.5809 0.0927409,4.1436 2.39358982,4.1436 0.022653,0 0.044717,-6e-4 0.066912,-10e-4 v 0.029 h 2.5601372 c -0.4547502,1.3524 -1.2807238,2.815 -2.2170241,4.2875 -0.091388,0.1437 -0.1798207,0.2907 -0.2658846,0.4398 l 1.4743253,1.5105 -2.3782879,0.3984 C 0.94746771,1048.2374 1.171842,1052.3 4.371622,1052.3 v 0 l 0.3935427,0 c 1.0073155,-0.024 1.9754035,-0.1817 2.5922632,-0.5447 0.176439,-0.1037 0.3225275,-0.2214 0.4424502,-0.356 H 6.4283559 c -0.8593676,0.2516 -1.7246527,-0.2933 -2.0034723,-1.0957 -0.3785781,-1.0893 0.3178779,-2.2133 1.3470468,-2.5553 0.2452992,-0.082 0.4955425,-0.1198 0.7424893,-0.1198 v -0.017 h 7.5381693 c -0.02409,-1.8768 0.69113,-3.8096 2.079053,-5.3261 1.0126,-1.1065 1.776647,-2.5626 2.168498,-4.0092 l -1.742618,-1.0539 1.617791,-0.2919 -1.833289,-1.0909 h -2.11e-4 l 8.5e-5,0 8.4e-5,0 2.203456,-0.3741 c -0.221162,-1.6542 -1.219093,-2.8792 -3.270501,-2.8792 -1.854931,0.3604 -6.886437,0.4885 -9.9624904,0.2013 -0.6293299,-0.2859 -1.2912496,-0.4533 -1.9405735,-0.4502 z m 0.019609,0.7906 c 0.5553129,0 1.1585184,0.1609 1.7435478,0.4494 l 0.00142,0 c 0.1972788,0.2001 0.3610785,0.4116 0.4937246,0.6334 H 2.5048344 l 0.4469722,0.6247 c 0.4484104,0.6269 0.8370907,1.3523 0.8914935,1.7765 0.027182,0.212 -0.00469,0.3029 -0.076678,0.3734 -0.072074,0.071 -0.2632624,0.1639 -0.6759109,0.1639 -1.7156492,0 -2.40428468,-1.9002 -1.7336147,-2.9193 0.4425768,-0.6724 1.0066389,-0.986 1.6584562,-1.0748 0.1221629,-0.016 0.2478351,-0.025 0.3759581,-0.024 z m 0.6173246,1.8698 h 1.9562965 c 0.1807089,0.6651 0.1545431,1.3979 -0.022991,2.1774 h -1.382936 c 0.080312,-0.2125 0.095873,-0.447 0.067632,-0.6667 -0.064544,-0.5035 -0.3130156,-1.0172 -0.618,-1.5107 z m 4.292737,13.4039 c 0.2722245,0.2891 0.4730959,0.6471 0.5651619,1.0531 0.1605027,0.7075 0.1307016,1.3192 -0.074692,1.8263 -0.1913181,0.4724 -0.5315986,0.8365 -0.9422186,1.099 H 17.876034 c 0.610729,0 1.051995,-0.2399 1.361123,-0.6051 0.309084,-0.3653 0.473434,-0.8672 0.45251,-1.3676 -0.0079,-0.1891 -0.04134,-0.3768 -0.101743,-0.5572 l -2.955159,-0.3468 1.776096,-0.8677 c -0.351694,-0.1456 -0.78793,-0.2341 -1.326249,-0.2341 H 8.301547 z m -1.8036151,0.022 c -0.0487,0 -0.097477,0 -0.146131,0.011 -0.1112989,0.011 -0.2221756,0.033 -0.3307269,0.069 -0.6387142,0.2123 -1.071061,0.9106 -0.8500683,1.5465 0.1552611,0.4468 0.6487314,0.7485 1.0844184,0.5891 l 0.065734,-0.024 h 1.8326136 c 0.039992,-0.2688 0.031874,-0.5867 -0.057408,-0.9803 -0.1568247,-0.6915 -0.868371,-1.204 -1.5984741,-1.2065 z"
       id="path6"
       inkscape:connector-curvature="0"
       style="fill:#000000;fill-rule:evenodd" />
  </g>
</svg>
